{
    "asset" : {
        "generator" : "Khronos glTF Blender I/O v1.6.16",
        "version" : "2.0"
    },
    "scene" : 0,
    "scenes" : [
        {
            "name" : "Scene",
            "nodes" : [
                1
            ]
        }
    ],
    "nodes" : [
        {
            "mesh" : 0,
            "name" : "Ghost",
            "scale" : [
                0.625512421131134,
                0.625512421131134,
                0.625512421131134
            ],
            "translation" : [
                0.001387183670885861,
                -1.615898847579956,
                0.004690262489020824
            ]
        },
        {
            "children" : [
                0
            ],
            "name" : "GhostControl",
            "scale" : [
                0.30704015493392944,
                0.30704015493392944,
                0.30704015493392944
            ],
            "translation" : [
                0,
                0.6046654582023621,
                0
            ]
        }
    ],
    "materials" : [
        {
            "alphaMode" : "BLEND",
            "doubleSided" : true,
            "emissiveFactor" : [
                1,
                1,
                1
            ],
            "name" : "Transparent",
            "pbrMetallicRoughness" : {}
        }
    ],
    "meshes" : [
        {
            "name" : "Cube",
            "primitives" : [
                {
                    "attributes" : {
                        "POSITION" : 0,
                        "NORMAL" : 1,
                        "TEXCOORD_0" : 2
                    },
                    "indices" : 3,
                    "material" : 0
                }
            ]
        }
    ],
    "accessors" : [
        {
            "bufferView" : 0,
            "componentType" : 5126,
            "count" : 4972,
            "max" : [
                1.8541852235794067,
                4.485034942626953,
                1.6011860370635986
            ],
            "min" : [
                -1.858620524406433,
                -0.3316476345062256,
                -1.5761078596115112
            ],
            "type" : "VEC3"
        },
        {
            "bufferView" : 1,
            "componentType" : 5126,
            "count" : 4972,
            "type" : "VEC3"
        },
        {
            "bufferView" : 2,
            "componentType" : 5126,
            "count" : 4972,
            "type" : "VEC2"
        },
        {
            "bufferView" : 3,
            "componentType" : 5123,
            "count" : 23712,
            "type" : "SCALAR"
        }
    ],
    "bufferViews" : [
        {
            "buffer" : 0,
            "byteLength" : 59664,
            "byteOffset" : 0
        },
        {
            "buffer" : 0,
            "byteLength" : 59664,
            "byteOffset" : 59664
        },
        {
            "buffer" : 0,
            "byteLength" : 39776,
            "byteOffset" : 119328
        },
        {
            "buffer" : 0,
            "byteLength" : 47424,
            "byteOffset" : 159104
        }
    ],
    "buffers" : [
        {
            "byteLength" : 206528,
            "uri" : "data:application/octet-stream;base64,"
        }
    ]
}
