{
	"asset":{
		"copyright":"TWS",
		"generator":"Khronos glTF Blender I/O v4.0.44",
		"version":"2.0"
	},
	"scene":0,
	"scenes":[
		{
			"name":"Scene",
			"nodes":[
				0
			]
		}
	],
	"nodes":[
		{
			"mesh":0,
			"name":"LOD0_Fassadenb\u00f6gen_4x1",
			"rotation":[
				0,
				-0.7071067094802856,
				0,
				0.7071068286895752
			]
		}
	],
	"materials":[
		{
			"doubleSided":true,
			"name":"Stonewall",
			"normalTexture":{
				"index":0
			},
			"pbrMetallicRoughness":{
				"baseColorTexture":{
					"index":1
				},
				"metallicFactor":0,
				"metallicRoughnessTexture":{
					"index":2
				}
			}
		},
		{
			"doubleSided":true,
			"name":"Stein_Mit_Decals",
			"normalTexture":{
				"index":3,
				"scale":0.5
			},
			"pbrMetallicRoughness":{
				"baseColorTexture":{
					"index":4
				},
				"metallicRoughnessTexture":{
					"index":5
				}
			}
		}
	],
	"meshes":[
		{
			"name":"Cube.021",
			"primitives":[
				{
					"attributes":{
						"POSITION":0,
						"NORMAL":1,
						"TEXCOORD_0":2,
						"TEXCOORD_1":3,
						"TEXCOORD_2":4
					},
					"indices":5,
					"material":0
				},
				{
					"attributes":{
						"POSITION":6,
						"NORMAL":7,
						"TEXCOORD_0":8,
						"TEXCOORD_1":9,
						"TEXCOORD_2":10
					},
					"indices":11,
					"material":1
				}
			]
		}
	],
	"textures":[
		{
			"sampler":0,
			"source":0
		},
		{
			"sampler":0,
			"source":1
		},
		{
			"sampler":0,
			"source":2
		},
		{
			"sampler":0,
			"source":3
		},
		{
			"sampler":0,
			"source":4
		},
		{
			"sampler":0,
			"source":5
		}
	],
	"images":[
		{
			"mimeType":"image/png",
			"name":"Wand_Normal",
			"uri":"textures/Wand_Normal.png"
		},
		{
			"mimeType":"image/png",
			"name":"Wand_Albedo2",
			"uri":"textures/Wand_Albedo2.png"
		},
		{
			"mimeType":"image/png",
			"name":"Roughness0001",
			"uri":"textures/Roughness0001.png"
		},
		{
			"mimeType":"image/png",
			"name":"Normal0002",
			"uri":"textures/Normal0002.png"
		},
		{
			"mimeType":"image/png",
			"name":"Stein_Albedo",
			"uri":"textures/Stein_Albedo.png"
		},
		{
			"mimeType":"image/png",
			"name":"Masks0002",
			"uri":"textures/Masks0002.png"
		}
	],
	"accessors":[
		{
			"bufferView":0,
			"componentType":5126,
			"count":422,
			"max":[
				0.800000011920929,
				2,
				4.000001430511475
			],
			"min":[
				-7.227063179016113e-07,
				0.2999996244907379,
				-4
			],
			"type":"VEC3"
		},
		{
			"bufferView":1,
			"componentType":5126,
			"count":422,
			"type":"VEC3"
		},
		{
			"bufferView":2,
			"componentType":5126,
			"count":422,
			"type":"VEC2"
		},
		{
			"bufferView":3,
			"componentType":5126,
			"count":422,
			"type":"VEC2"
		},
		{
			"bufferView":4,
			"componentType":5126,
			"count":422,
			"type":"VEC2"
		},
		{
			"bufferView":5,
			"componentType":5123,
			"count":1062,
			"type":"SCALAR"
		},
		{
			"bufferView":6,
			"componentType":5126,
			"count":505,
			"max":[
				0.800000011920929,
				2,
				4.000001430511475
			],
			"min":[
				-0.0017676913412287831,
				3.8743019104003906e-07,
				-4
			],
			"type":"VEC3"
		},
		{
			"bufferView":7,
			"componentType":5126,
			"count":505,
			"type":"VEC3"
		},
		{
			"bufferView":8,
			"componentType":5126,
			"count":505,
			"type":"VEC2"
		},
		{
			"bufferView":9,
			"componentType":5126,
			"count":505,
			"type":"VEC2"
		},
		{
			"bufferView":10,
			"componentType":5126,
			"count":505,
			"type":"VEC2"
		},
		{
			"bufferView":11,
			"componentType":5123,
			"count":1050,
			"type":"SCALAR"
		}
	],
	"bufferViews":[
		{
			"buffer":0,
			"byteLength":5064,
			"byteOffset":0,
			"target":34962
		},
		{
			"buffer":0,
			"byteLength":5064,
			"byteOffset":5064,
			"target":34962
		},
		{
			"buffer":0,
			"byteLength":3376,
			"byteOffset":10128,
			"target":34962
		},
		{
			"buffer":0,
			"byteLength":3376,
			"byteOffset":13504,
			"target":34962
		},
		{
			"buffer":0,
			"byteLength":3376,
			"byteOffset":16880,
			"target":34962
		},
		{
			"buffer":0,
			"byteLength":2124,
			"byteOffset":20256,
			"target":34963
		},
		{
			"buffer":0,
			"byteLength":6060,
			"byteOffset":22380,
			"target":34962
		},
		{
			"buffer":0,
			"byteLength":6060,
			"byteOffset":28440,
			"target":34962
		},
		{
			"buffer":0,
			"byteLength":4040,
			"byteOffset":34500,
			"target":34962
		},
		{
			"buffer":0,
			"byteLength":4040,
			"byteOffset":38540,
			"target":34962
		},
		{
			"buffer":0,
			"byteLength":4040,
			"byteOffset":42580,
			"target":34962
		},
		{
			"buffer":0,
			"byteLength":2100,
			"byteOffset":46620,
			"target":34963
		}
	],
	"samplers":[
		{
			"magFilter":9729,
			"minFilter":9987
		}
	],
	"buffers":[
		{
			"byteLength":48720,
			"uri":"Fassadenb%C3%B6gen_4x1.bin"
		}
	]
}
