{
	"asset":{
		"copyright":"TWS",
		"generator":"Khronos glTF Blender I/O v4.0.44",
		"version":"2.0"
	},
	"scene":0,
	"scenes":[
		{
			"name":"Scene",
			"nodes":[
				0
			]
		}
	],
	"nodes":[
		{
			"mesh":0,
			"name":"Gel\u00e4nder_4m",
			"rotation":[
				0,
				-0.7071067094802856,
				0,
				0.7071068286895752
			]
		}
	],
	"materials":[
		{
			"doubleSided":true,
			"name":"Stonewall",
			"normalTexture":{
				"index":0
			},
			"pbrMetallicRoughness":{
				"baseColorTexture":{
					"index":1
				},
				"metallicFactor":0,
				"metallicRoughnessTexture":{
					"index":2
				}
			}
		},
		{
			"doubleSided":true,
			"name":"Stein_Mit_Decals",
			"normalTexture":{
				"index":3,
				"scale":0.5
			},
			"pbrMetallicRoughness":{
				"baseColorTexture":{
					"index":4
				},
				"metallicRoughnessTexture":{
					"index":5
				}
			}
		}
	],
	"meshes":[
		{
			"name":"Gel\u00e4nder_4m",
			"primitives":[
				{
					"attributes":{
						"POSITION":0,
						"NORMAL":1,
						"TEXCOORD_0":2,
						"TEXCOORD_1":3,
						"TEXCOORD_2":4
					},
					"indices":5,
					"material":0
				},
				{
					"attributes":{
						"POSITION":6,
						"NORMAL":7,
						"TEXCOORD_0":8,
						"TEXCOORD_1":9,
						"TEXCOORD_2":10
					},
					"indices":11,
					"material":1
				}
			]
		}
	],
	"textures":[
		{
			"sampler":0,
			"source":0
		},
		{
			"sampler":0,
			"source":1
		},
		{
			"sampler":0,
			"source":2
		},
		{
			"sampler":0,
			"source":3
		},
		{
			"sampler":0,
			"source":4
		},
		{
			"sampler":0,
			"source":5
		}
	],
	"images":[
		{
			"mimeType":"image/png",
			"name":"Wand_Normal",
			"uri":"textures/Wand_Normal.png"
		},
		{
			"mimeType":"image/png",
			"name":"Wand_Albedo2",
			"uri":"textures/Wand_Albedo2.png"
		},
		{
			"mimeType":"image/png",
			"name":"Roughness0001",
			"uri":"textures/Roughness0001.png"
		},
		{
			"mimeType":"image/png",
			"name":"Normal0002",
			"uri":"textures/Normal0002.png"
		},
		{
			"mimeType":"image/png",
			"name":"Stein_Albedo",
			"uri":"textures/Stein_Albedo.png"
		},
		{
			"mimeType":"image/png",
			"name":"Masks0002",
			"uri":"textures/Masks0002.png"
		}
	],
	"accessors":[
		{
			"bufferView":0,
			"componentType":5126,
			"count":81,
			"max":[
				4,
				1.2400001287460327,
				0.2199999988079071
			],
			"min":[
				0,
				0,
				-0.2199999988079071
			],
			"type":"VEC3"
		},
		{
			"bufferView":1,
			"componentType":5126,
			"count":81,
			"type":"VEC3"
		},
		{
			"bufferView":2,
			"componentType":5126,
			"count":81,
			"type":"VEC2"
		},
		{
			"bufferView":3,
			"componentType":5126,
			"count":81,
			"type":"VEC2"
		},
		{
			"bufferView":4,
			"componentType":5126,
			"count":81,
			"type":"VEC2"
		},
		{
			"bufferView":5,
			"componentType":5123,
			"count":180,
			"type":"SCALAR"
		},
		{
			"bufferView":6,
			"componentType":5126,
			"count":675,
			"max":[
				3.770001173019409,
				1,
				0.17000040411949158
			],
			"min":[
				0.23000025749206543,
				0.19999998807907104,
				-0.16999998688697815
			],
			"type":"VEC3"
		},
		{
			"bufferView":7,
			"componentType":5126,
			"count":675,
			"type":"VEC3"
		},
		{
			"bufferView":8,
			"componentType":5126,
			"count":675,
			"type":"VEC2"
		},
		{
			"bufferView":9,
			"componentType":5126,
			"count":675,
			"type":"VEC2"
		},
		{
			"bufferView":10,
			"componentType":5126,
			"count":675,
			"type":"VEC2"
		},
		{
			"bufferView":11,
			"componentType":5123,
			"count":3120,
			"type":"SCALAR"
		}
	],
	"bufferViews":[
		{
			"buffer":0,
			"byteLength":972,
			"byteOffset":0,
			"target":34962
		},
		{
			"buffer":0,
			"byteLength":972,
			"byteOffset":972,
			"target":34962
		},
		{
			"buffer":0,
			"byteLength":648,
			"byteOffset":1944,
			"target":34962
		},
		{
			"buffer":0,
			"byteLength":648,
			"byteOffset":2592,
			"target":34962
		},
		{
			"buffer":0,
			"byteLength":648,
			"byteOffset":3240,
			"target":34962
		},
		{
			"buffer":0,
			"byteLength":360,
			"byteOffset":3888,
			"target":34963
		},
		{
			"buffer":0,
			"byteLength":8100,
			"byteOffset":4248,
			"target":34962
		},
		{
			"buffer":0,
			"byteLength":8100,
			"byteOffset":12348,
			"target":34962
		},
		{
			"buffer":0,
			"byteLength":5400,
			"byteOffset":20448,
			"target":34962
		},
		{
			"buffer":0,
			"byteLength":5400,
			"byteOffset":25848,
			"target":34962
		},
		{
			"buffer":0,
			"byteLength":5400,
			"byteOffset":31248,
			"target":34962
		},
		{
			"buffer":0,
			"byteLength":6240,
			"byteOffset":36648,
			"target":34963
		}
	],
	"samplers":[
		{
			"magFilter":9729,
			"minFilter":9987
		}
	],
	"buffers":[
		{
			"byteLength":42888,
			"uri":"Gel%C3%A4nder_4m.bin"
		}
	]
}
