{
	"asset":{
		"copyright":"TWS",
		"generator":"Khronos glTF Blender I/O v4.0.44",
		"version":"2.0"
	},
	"extensionsUsed":[
		"KHR_materials_emissive_strength"
	],
	"scene":0,
	"scenes":[
		{
			"name":"Scene",
			"nodes":[
				3,
				4
			]
		}
	],
	"nodes":[
		{
			"name":"Hebel",
			"translation":[
				4.656612873077393e-10,
				-0.010000109672546387,
				0.013704076409339905
			]
		},
		{
			"name":"neutral_bone",
			"rotation":[
				-0.7071067690849304,
				0,
				0,
				0.7071067690849304
			]
		},
		{
			"mesh":0,
			"name":"Swich",
			"skin":0
		},
		{
			"children":[
				2,
				0,
				1
			],
			"name":"Armature",
			"translation":[
				0,
				0.7600001096725464,
				0.13129591941833496
			]
		},
		{
			"mesh":1,
			"name":"Kabel",
			"translation":[
				-1.5,
				0,
				0.03999999910593033
			]
		}
	],
	"animations":[
		{
			"channels":[
				{
					"sampler":0,
					"target":{
						"node":0,
						"path":"translation"
					}
				},
				{
					"sampler":1,
					"target":{
						"node":0,
						"path":"rotation"
					}
				},
				{
					"sampler":2,
					"target":{
						"node":0,
						"path":"scale"
					}
				}
			],
			"name":"ArmatureAction.001",
			"samplers":[
				{
					"input":11,
					"interpolation":"STEP",
					"output":12
				},
				{
					"input":13,
					"interpolation":"LINEAR",
					"output":14
				},
				{
					"input":11,
					"interpolation":"STEP",
					"output":15
				}
			]
		}
	],
	"materials":[
		{
			"doubleSided":true,
			"emissiveFactor":[
				1,
				1,
				1
			],
			"emissiveTexture":{
				"index":0
			},
			"extensions":{
				"KHR_materials_emissive_strength":{
					"emissiveStrength":5
				}
			},
			"name":"Mat_Switch",
			"pbrMetallicRoughness":{
				"baseColorTexture":{
					"index":1
				},
				"metallicFactor":0,
				"roughnessFactor":0.699999988079071
			}
		},
		{
			"doubleSided":true,
			"emissiveFactor":[
				1,
				1,
				1
			],
			"emissiveTexture":{
				"index":2
			},
			"extensions":{
				"KHR_materials_emissive_strength":{
					"emissiveStrength":5
				}
			},
			"name":"Mat_Switch",
			"pbrMetallicRoughness":{
				"baseColorTexture":{
					"index":3
				},
				"metallicFactor":0,
				"roughnessFactor":0.699999988079071
			}
		}
	],
	"meshes":[
		{
			"name":"Cube.001",
			"primitives":[
				{
					"attributes":{
						"POSITION":0,
						"NORMAL":1,
						"TEXCOORD_0":2,
						"JOINTS_0":3,
						"WEIGHTS_0":4
					},
					"indices":5,
					"material":0
				}
			]
		},
		{
			"name":"BezierCurve",
			"primitives":[
				{
					"attributes":{
						"POSITION":7,
						"NORMAL":8,
						"TEXCOORD_0":9
					},
					"indices":10,
					"material":1
				}
			]
		}
	],
	"textures":[
		{
			"sampler":0,
			"source":0
		},
		{
			"sampler":0,
			"source":1
		},
		{
			"sampler":0,
			"source":0
		},
		{
			"sampler":0,
			"source":1
		}
	],
	"images":[
		{
			"mimeType":"image/png",
			"name":"Switch_Emission",
			"uri":"textures/Switch_Emission.png"
		},
		{
			"mimeType":"image/png",
			"name":"Switch_Albedo",
			"uri":"textures/Switch_Albedo.png"
		}
	],
	"skins":[
		{
			"inverseBindMatrices":6,
			"joints":[
				0,
				1
			],
			"name":"Armature"
		}
	],
	"accessors":[
		{
			"bufferView":0,
			"componentType":5126,
			"count":741,
			"max":[
				0.15000002086162567,
				0.9300002455711365,
				0.18000003695487976
			],
			"min":[
				-0.15000002086162567,
				-7.450580596923828e-09,
				0.009999977424740791
			],
			"type":"VEC3"
		},
		{
			"bufferView":1,
			"componentType":5126,
			"count":741,
			"type":"VEC3"
		},
		{
			"bufferView":2,
			"componentType":5126,
			"count":741,
			"type":"VEC2"
		},
		{
			"bufferView":3,
			"componentType":5121,
			"count":741,
			"type":"VEC4"
		},
		{
			"bufferView":4,
			"componentType":5126,
			"count":741,
			"type":"VEC4"
		},
		{
			"bufferView":5,
			"componentType":5123,
			"count":2208,
			"type":"SCALAR"
		},
		{
			"bufferView":6,
			"componentType":5126,
			"count":2,
			"type":"MAT4"
		},
		{
			"bufferView":7,
			"componentType":5126,
			"count":364,
			"max":[
				1.7102575302124023,
				0.8086602687835693,
				0.06999999284744263
			],
			"min":[
				1.5900001525878906,
				-4.6566128730773926e-09,
				0.02716165967285633
			],
			"type":"VEC3"
		},
		{
			"bufferView":8,
			"componentType":5126,
			"count":364,
			"type":"VEC3"
		},
		{
			"bufferView":9,
			"componentType":5126,
			"count":364,
			"type":"VEC2"
		},
		{
			"bufferView":10,
			"componentType":5123,
			"count":1800,
			"type":"SCALAR"
		},
		{
			"bufferView":11,
			"componentType":5126,
			"count":2,
			"max":[
				2.3666666666666667
			],
			"min":[
				0.03333333333333333
			],
			"type":"SCALAR"
		},
		{
			"bufferView":12,
			"componentType":5126,
			"count":2,
			"type":"VEC3"
		},
		{
			"bufferView":13,
			"componentType":5126,
			"count":71,
			"max":[
				2.3666666666666667
			],
			"min":[
				0.03333333333333333
			],
			"type":"SCALAR"
		},
		{
			"bufferView":14,
			"componentType":5126,
			"count":71,
			"type":"VEC4"
		},
		{
			"bufferView":15,
			"componentType":5126,
			"count":2,
			"type":"VEC3"
		}
	],
	"bufferViews":[
		{
			"buffer":0,
			"byteLength":8892,
			"byteOffset":0,
			"target":34962
		},
		{
			"buffer":0,
			"byteLength":8892,
			"byteOffset":8892,
			"target":34962
		},
		{
			"buffer":0,
			"byteLength":5928,
			"byteOffset":17784,
			"target":34962
		},
		{
			"buffer":0,
			"byteLength":2964,
			"byteOffset":23712,
			"target":34962
		},
		{
			"buffer":0,
			"byteLength":11856,
			"byteOffset":26676,
			"target":34962
		},
		{
			"buffer":0,
			"byteLength":4416,
			"byteOffset":38532,
			"target":34963
		},
		{
			"buffer":0,
			"byteLength":128,
			"byteOffset":42948
		},
		{
			"buffer":0,
			"byteLength":4368,
			"byteOffset":43076,
			"target":34962
		},
		{
			"buffer":0,
			"byteLength":4368,
			"byteOffset":47444,
			"target":34962
		},
		{
			"buffer":0,
			"byteLength":2912,
			"byteOffset":51812,
			"target":34962
		},
		{
			"buffer":0,
			"byteLength":3600,
			"byteOffset":54724,
			"target":34963
		},
		{
			"buffer":0,
			"byteLength":8,
			"byteOffset":58324
		},
		{
			"buffer":0,
			"byteLength":24,
			"byteOffset":58332
		},
		{
			"buffer":0,
			"byteLength":284,
			"byteOffset":58356
		},
		{
			"buffer":0,
			"byteLength":1136,
			"byteOffset":58640
		},
		{
			"buffer":0,
			"byteLength":24,
			"byteOffset":59776
		}
	],
	"samplers":[
		{
			"magFilter":9729,
			"minFilter":9987
		}
	],
	"buffers":[
		{
			"byteLength":59800,
			"uri":"Switch.bin"
		}
	]
}
