{
	"asset":{
		"copyright":"TWS",
		"generator":"Khronos glTF Blender I/O v4.0.44",
		"version":"2.0"
	},
	"extensionsUsed":[
		"KHR_materials_specular",
		"KHR_materials_ior"
	],
	"scene":0,
	"scenes":[
		{
			"name":"Scene",
			"nodes":[
				0
			]
		}
	],
	"nodes":[
		{
			"mesh":0,
			"name":"S\u00e4ule_Eckig_4x1",
			"rotation":[
				0,
				-0.7071067094802856,
				0,
				0.7071068286895752
			]
		}
	],
	"materials":[
		{
			"doubleSided":true,
			"name":"Stein_Mit_Decals",
			"normalTexture":{
				"index":0,
				"scale":0.5
			},
			"pbrMetallicRoughness":{
				"baseColorTexture":{
					"index":1
				},
				"metallicRoughnessTexture":{
					"index":2
				}
			}
		},
		{
			"doubleSided":true,
			"extensions":{
				"KHR_materials_specular":{
					"specularFactor":0.4000000059604645
				},
				"KHR_materials_ior":{
					"ior":1.4500000476837158
				}
			},
			"name":"Stonefloor",
			"normalTexture":{
				"index":3
			},
			"pbrMetallicRoughness":{
				"baseColorTexture":{
					"index":4
				},
				"metallicFactor":0,
				"metallicRoughnessTexture":{
					"index":5
				}
			}
		}
	],
	"meshes":[
		{
			"name":"S\u00e4ule_Eckig_4x1",
			"primitives":[
				{
					"attributes":{
						"POSITION":0,
						"NORMAL":1,
						"TEXCOORD_0":2,
						"TEXCOORD_1":3,
						"TEXCOORD_2":4
					},
					"indices":5,
					"material":0
				},
				{
					"attributes":{
						"POSITION":6,
						"NORMAL":7,
						"TEXCOORD_0":8,
						"TEXCOORD_1":9,
						"TEXCOORD_2":10
					},
					"indices":11,
					"material":1
				}
			]
		}
	],
	"textures":[
		{
			"sampler":0,
			"source":0
		},
		{
			"sampler":0,
			"source":1
		},
		{
			"sampler":0,
			"source":2
		},
		{
			"sampler":0,
			"source":3
		},
		{
			"sampler":0,
			"source":4
		},
		{
			"sampler":0,
			"source":5
		}
	],
	"images":[
		{
			"mimeType":"image/png",
			"name":"Normal0002",
			"uri":"textures/Normal0002.png"
		},
		{
			"mimeType":"image/png",
			"name":"Stein_Albedo",
			"uri":"textures/Stein_Albedo.png"
		},
		{
			"mimeType":"image/png",
			"name":"Masks0002",
			"uri":"textures/Masks0002.png"
		},
		{
			"mimeType":"image/png",
			"name":"Pflastersein_Normal0001",
			"uri":"textures/Pflastersein_Normal0001.png"
		},
		{
			"mimeType":"image/png",
			"name":"Pflastersein_Albedo0001",
			"uri":"textures/Pflastersein_Albedo0001.png"
		},
		{
			"mimeType":"image/png",
			"name":"Pflastersein_Height0001",
			"uri":"textures/Pflastersein_Height0001.png"
		}
	],
	"accessors":[
		{
			"bufferView":0,
			"componentType":5126,
			"count":144,
			"max":[
				2.4000000953674316,
				1,
				2.4000000953674316
			],
			"min":[
				-2.4000000953674316,
				0,
				-2.4000000953674316
			],
			"type":"VEC3"
		},
		{
			"bufferView":1,
			"componentType":5126,
			"count":144,
			"type":"VEC3"
		},
		{
			"bufferView":2,
			"componentType":5126,
			"count":144,
			"type":"VEC2"
		},
		{
			"bufferView":3,
			"componentType":5126,
			"count":144,
			"type":"VEC2"
		},
		{
			"bufferView":4,
			"componentType":5126,
			"count":144,
			"type":"VEC2"
		},
		{
			"bufferView":5,
			"componentType":5123,
			"count":216,
			"type":"SCALAR"
		},
		{
			"bufferView":6,
			"componentType":5126,
			"count":8,
			"max":[
				2.200000047683716,
				1,
				2.200000047683716
			],
			"min":[
				-2.200000047683716,
				0,
				-2.200000047683716
			],
			"type":"VEC3"
		},
		{
			"bufferView":7,
			"componentType":5126,
			"count":8,
			"type":"VEC3"
		},
		{
			"bufferView":8,
			"componentType":5126,
			"count":8,
			"type":"VEC2"
		},
		{
			"bufferView":9,
			"componentType":5126,
			"count":8,
			"type":"VEC2"
		},
		{
			"bufferView":10,
			"componentType":5126,
			"count":8,
			"type":"VEC2"
		},
		{
			"bufferView":11,
			"componentType":5123,
			"count":12,
			"type":"SCALAR"
		}
	],
	"bufferViews":[
		{
			"buffer":0,
			"byteLength":1728,
			"byteOffset":0,
			"target":34962
		},
		{
			"buffer":0,
			"byteLength":1728,
			"byteOffset":1728,
			"target":34962
		},
		{
			"buffer":0,
			"byteLength":1152,
			"byteOffset":3456,
			"target":34962
		},
		{
			"buffer":0,
			"byteLength":1152,
			"byteOffset":4608,
			"target":34962
		},
		{
			"buffer":0,
			"byteLength":1152,
			"byteOffset":5760,
			"target":34962
		},
		{
			"buffer":0,
			"byteLength":432,
			"byteOffset":6912,
			"target":34963
		},
		{
			"buffer":0,
			"byteLength":96,
			"byteOffset":7344,
			"target":34962
		},
		{
			"buffer":0,
			"byteLength":96,
			"byteOffset":7440,
			"target":34962
		},
		{
			"buffer":0,
			"byteLength":64,
			"byteOffset":7536,
			"target":34962
		},
		{
			"buffer":0,
			"byteLength":64,
			"byteOffset":7600,
			"target":34962
		},
		{
			"buffer":0,
			"byteLength":64,
			"byteOffset":7664,
			"target":34962
		},
		{
			"buffer":0,
			"byteLength":24,
			"byteOffset":7728,
			"target":34963
		}
	],
	"samplers":[
		{
			"magFilter":9729,
			"minFilter":9987
		}
	],
	"buffers":[
		{
			"byteLength":7752,
			"uri":"S%C3%A4ule_Eckig_4x1.bin"
		}
	]
}
