{
	"asset":{
		"copyright":"TWS",
		"generator":"Khronos glTF Blender I/O v4.0.44",
		"version":"2.0"
	},
	"extensionsUsed":[
		"KHR_materials_specular",
		"KHR_materials_ior"
	],
	"scene":0,
	"scenes":[
		{
			"name":"Scene",
			"nodes":[
				0
			]
		}
	],
	"nodes":[
		{
			"mesh":0,
			"name":"S\u00e4ulenfu\u00df_4m",
			"scale":[
				2,
				2,
				2
			]
		}
	],
	"materials":[
		{
			"doubleSided":true,
			"name":"Stonewall",
			"normalTexture":{
				"index":0
			},
			"pbrMetallicRoughness":{
				"baseColorTexture":{
					"index":1
				},
				"metallicFactor":0,
				"metallicRoughnessTexture":{
					"index":2
				}
			}
		},
		{
			"doubleSided":true,
			"extensions":{
				"KHR_materials_specular":{
					"specularFactor":0.4000000059604645
				},
				"KHR_materials_ior":{
					"ior":1.4500000476837158
				}
			},
			"name":"Stonefloor",
			"normalTexture":{
				"index":3
			},
			"pbrMetallicRoughness":{
				"baseColorTexture":{
					"index":4
				},
				"metallicFactor":0,
				"metallicRoughnessTexture":{
					"index":5
				}
			}
		}
	],
	"meshes":[
		{
			"name":"S\u00e4ulenfu\u00df_2m_rel.003",
			"primitives":[
				{
					"attributes":{
						"POSITION":0,
						"NORMAL":1,
						"TEXCOORD_0":2
					},
					"indices":3,
					"material":0
				},
				{
					"attributes":{
						"POSITION":4,
						"NORMAL":5,
						"TEXCOORD_0":6
					},
					"indices":7,
					"material":1
				}
			]
		}
	],
	"textures":[
		{
			"sampler":0,
			"source":0
		},
		{
			"sampler":0,
			"source":1
		},
		{
			"sampler":0,
			"source":2
		},
		{
			"sampler":0,
			"source":3
		},
		{
			"sampler":0,
			"source":4
		},
		{
			"sampler":0,
			"source":5
		}
	],
	"images":[
		{
			"mimeType":"image/png",
			"name":"Wand_Normal",
			"uri":"textures/Wand_Normal.png"
		},
		{
			"mimeType":"image/png",
			"name":"Wand_Albedo2",
			"uri":"textures/Wand_Albedo2.png"
		},
		{
			"mimeType":"image/png",
			"name":"Roughness0001",
			"uri":"textures/Roughness0001.png"
		},
		{
			"mimeType":"image/png",
			"name":"Pflastersein_Normal0001",
			"uri":"textures/Pflastersein_Normal0001.png"
		},
		{
			"mimeType":"image/png",
			"name":"Pflastersein_Albedo0001",
			"uri":"textures/Pflastersein_Albedo0001.png"
		},
		{
			"mimeType":"image/png",
			"name":"Pflastersein_Height0001",
			"uri":"textures/Pflastersein_Height0001.png"
		}
	],
	"accessors":[
		{
			"bufferView":0,
			"componentType":5126,
			"count":665,
			"max":[
				1.0195519924163818,
				1,
				1.0195519924163818
			],
			"min":[
				-1.0195519924163818,
				0,
				-1.0195519924163818
			],
			"type":"VEC3"
		},
		{
			"bufferView":1,
			"componentType":5126,
			"count":665,
			"type":"VEC3"
		},
		{
			"bufferView":2,
			"componentType":5126,
			"count":665,
			"type":"VEC2"
		},
		{
			"bufferView":3,
			"componentType":5123,
			"count":2196,
			"type":"SCALAR"
		},
		{
			"bufferView":4,
			"componentType":5126,
			"count":141,
			"max":[
				1.0195519924163818,
				1,
				1.0195519924163818
			],
			"min":[
				-1.0195519924163818,
				0,
				-1.0195519924163818
			],
			"type":"VEC3"
		},
		{
			"bufferView":5,
			"componentType":5126,
			"count":141,
			"type":"VEC3"
		},
		{
			"bufferView":6,
			"componentType":5126,
			"count":141,
			"type":"VEC2"
		},
		{
			"bufferView":7,
			"componentType":5123,
			"count":438,
			"type":"SCALAR"
		}
	],
	"bufferViews":[
		{
			"buffer":0,
			"byteLength":7980,
			"byteOffset":0,
			"target":34962
		},
		{
			"buffer":0,
			"byteLength":7980,
			"byteOffset":7980,
			"target":34962
		},
		{
			"buffer":0,
			"byteLength":5320,
			"byteOffset":15960,
			"target":34962
		},
		{
			"buffer":0,
			"byteLength":4392,
			"byteOffset":21280,
			"target":34963
		},
		{
			"buffer":0,
			"byteLength":1692,
			"byteOffset":25672,
			"target":34962
		},
		{
			"buffer":0,
			"byteLength":1692,
			"byteOffset":27364,
			"target":34962
		},
		{
			"buffer":0,
			"byteLength":1128,
			"byteOffset":29056,
			"target":34962
		},
		{
			"buffer":0,
			"byteLength":876,
			"byteOffset":30184,
			"target":34963
		}
	],
	"samplers":[
		{
			"magFilter":9729,
			"minFilter":9987
		}
	],
	"buffers":[
		{
			"byteLength":31060,
			"uri":"S%C3%A4ulenfu%C3%9F_4m.bin"
		}
	]
}
