{
	"asset":{
		"copyright":"TWS",
		"generator":"Khronos glTF Blender I/O v4.0.44",
		"version":"2.0"
	},
	"scene":0,
	"scenes":[
		{
			"name":"Scene",
			"nodes":[
				0
			]
		}
	],
	"nodes":[
		{
			"mesh":0,
			"name":"S\u00e4ulenwand"
		}
	],
	"materials":[
		{
			"doubleSided":true,
			"name":"Stein_Mit_Decals",
			"normalTexture":{
				"index":0,
				"scale":0.5
			},
			"pbrMetallicRoughness":{
				"baseColorTexture":{
					"index":1
				},
				"metallicRoughnessTexture":{
					"index":2
				}
			}
		}
	],
	"meshes":[
		{
			"name":"S\u00e4ulenwand",
			"primitives":[
				{
					"attributes":{
						"POSITION":0,
						"NORMAL":1,
						"TEXCOORD_0":2,
						"TEXCOORD_1":3,
						"TEXCOORD_2":4
					},
					"indices":5,
					"material":0
				}
			]
		}
	],
	"textures":[
		{
			"sampler":0,
			"source":0
		},
		{
			"sampler":0,
			"source":1
		},
		{
			"sampler":0,
			"source":2
		}
	],
	"images":[
		{
			"mimeType":"image/png",
			"name":"Normal0002",
			"uri":"textures/Normal0002.png"
		},
		{
			"mimeType":"image/png",
			"name":"Stein_Albedo",
			"uri":"textures/Stein_Albedo.png"
		},
		{
			"mimeType":"image/png",
			"name":"Masks0002",
			"uri":"textures/Masks0002.png"
		}
	],
	"accessors":[
		{
			"bufferView":0,
			"componentType":5126,
			"count":250,
			"max":[
				4.099999904632568,
				4,
				0.20000000298023224
			],
			"min":[
				-4.099999904632568,
				0,
				0
			],
			"type":"VEC3"
		},
		{
			"bufferView":1,
			"componentType":5126,
			"count":250,
			"type":"VEC3"
		},
		{
			"bufferView":2,
			"componentType":5126,
			"count":250,
			"type":"VEC2"
		},
		{
			"bufferView":3,
			"componentType":5126,
			"count":250,
			"type":"VEC2"
		},
		{
			"bufferView":4,
			"componentType":5126,
			"count":250,
			"type":"VEC2"
		},
		{
			"bufferView":5,
			"componentType":5123,
			"count":660,
			"type":"SCALAR"
		}
	],
	"bufferViews":[
		{
			"buffer":0,
			"byteLength":3000,
			"byteOffset":0,
			"target":34962
		},
		{
			"buffer":0,
			"byteLength":3000,
			"byteOffset":3000,
			"target":34962
		},
		{
			"buffer":0,
			"byteLength":2000,
			"byteOffset":6000,
			"target":34962
		},
		{
			"buffer":0,
			"byteLength":2000,
			"byteOffset":8000,
			"target":34962
		},
		{
			"buffer":0,
			"byteLength":2000,
			"byteOffset":10000,
			"target":34962
		},
		{
			"buffer":0,
			"byteLength":1320,
			"byteOffset":12000,
			"target":34963
		}
	],
	"samplers":[
		{
			"magFilter":9729,
			"minFilter":9987
		}
	],
	"buffers":[
		{
			"byteLength":13320,
			"uri":"S%C3%A4ulenwand.bin"
		}
	]
}
