{
	"asset":{
		"copyright":"TWS",
		"generator":"Khronos glTF Blender I/O v4.0.44",
		"version":"2.0"
	},
	"scene":0,
	"scenes":[
		{
			"name":"Scene",
			"nodes":[
				0
			]
		}
	],
	"nodes":[
		{
			"mesh":0,
			"name":"Treppe_4m.CB",
			"translation":[
				-2,
				0.9000000357627869,
				0
			]
		}
	],
	"meshes":[
		{
			"name":"Cube.023",
			"primitives":[
				{
					"attributes":{
						"POSITION":0,
						"NORMAL":1,
						"TEXCOORD_0":2
					},
					"indices":3
				}
			]
		}
	],
	"accessors":[
		{
			"bufferView":0,
			"componentType":5126,
			"count":174,
			"max":[
				4,
				4.110000133514404,
				1.600000023841858
			],
			"min":[
				0,
				-1.100000023841858,
				-1.600000023841858
			],
			"type":"VEC3"
		},
		{
			"bufferView":1,
			"componentType":5126,
			"count":174,
			"type":"VEC3"
		},
		{
			"bufferView":2,
			"componentType":5126,
			"count":174,
			"type":"VEC2"
		},
		{
			"bufferView":3,
			"componentType":5123,
			"count":264,
			"type":"SCALAR"
		}
	],
	"bufferViews":[
		{
			"buffer":0,
			"byteLength":2088,
			"byteOffset":0,
			"target":34962
		},
		{
			"buffer":0,
			"byteLength":2088,
			"byteOffset":2088,
			"target":34962
		},
		{
			"buffer":0,
			"byteLength":1392,
			"byteOffset":4176,
			"target":34962
		},
		{
			"buffer":0,
			"byteLength":528,
			"byteOffset":5568,
			"target":34963
		}
	],
	"buffers":[
		{
			"byteLength":6096,
			"uri":"Treppe_4m.CB.bin"
		}
	]
}
