{
	"asset":{
		"copyright":"TWS",
		"generator":"Khronos glTF Blender I/O v4.0.44",
		"version":"2.0"
	},
	"extensionsUsed":[
		"KHR_materials_specular",
		"KHR_materials_ior"
	],
	"scene":0,
	"scenes":[
		{
			"name":"Scene",
			"nodes":[
				0
			]
		}
	],
	"nodes":[
		{
			"mesh":0,
			"name":"Treppe_4m",
			"translation":[
				-2,
				1,
				0
			]
		}
	],
	"materials":[
		{
			"doubleSided":true,
			"extensions":{
				"KHR_materials_specular":{
					"specularFactor":0.6000000238418579,
					"specularTexture":{
						"index":0
					}
				},
				"KHR_materials_ior":{
					"ior":1.4500000476837158
				}
			},
			"name":"Holz",
			"normalTexture":{
				"index":1
			},
			"pbrMetallicRoughness":{
				"baseColorTexture":{
					"index":2
				},
				"metallicFactor":0,
				"roughnessFactor":0.5
			}
		}
	],
	"meshes":[
		{
			"name":"Laufsteg.003",
			"primitives":[
				{
					"attributes":{
						"POSITION":0,
						"NORMAL":1,
						"TEXCOORD_0":2
					},
					"indices":3,
					"material":0
				}
			]
		}
	],
	"textures":[
		{
			"sampler":0,
			"source":0
		},
		{
			"sampler":0,
			"source":1
		},
		{
			"sampler":0,
			"source":2
		}
	],
	"images":[
		{
			"mimeType":"image/png",
			"name":"RauesHolz_AO",
			"uri":"textures/RauesHolz_AO.png"
		},
		{
			"mimeType":"image/png",
			"name":"RauesHolz_Normal",
			"uri":"textures/RauesHolz_Normal.png"
		},
		{
			"mimeType":"image/png",
			"name":"RauesHolz-2_Difuse",
			"uri":"textures/RauesHolz-2_Difuse.png"
		}
	],
	"accessors":[
		{
			"bufferView":0,
			"componentType":5126,
			"count":3002,
			"max":[
				4.0955281257629395,
				3.9933512210845947,
				1.5999999046325684
			],
			"min":[
				-0.09415151178836823,
				-1.2999999523162842,
				-1.5999999046325684
			],
			"type":"VEC3"
		},
		{
			"bufferView":1,
			"componentType":5126,
			"count":3002,
			"type":"VEC3"
		},
		{
			"bufferView":2,
			"componentType":5126,
			"count":3002,
			"type":"VEC2"
		},
		{
			"bufferView":3,
			"componentType":5123,
			"count":7104,
			"type":"SCALAR"
		}
	],
	"bufferViews":[
		{
			"buffer":0,
			"byteLength":36024,
			"byteOffset":0,
			"target":34962
		},
		{
			"buffer":0,
			"byteLength":36024,
			"byteOffset":36024,
			"target":34962
		},
		{
			"buffer":0,
			"byteLength":24016,
			"byteOffset":72048,
			"target":34962
		},
		{
			"buffer":0,
			"byteLength":14208,
			"byteOffset":96064,
			"target":34963
		}
	],
	"samplers":[
		{
			"magFilter":9729,
			"minFilter":9987
		}
	],
	"buffers":[
		{
			"byteLength":110272,
			"uri":"Treppe_4m.bin"
		}
	]
}
