{
	"asset":{
		"copyright":"TWS",
		"generator":"Khronos glTF Blender I/O v4.0.44",
		"version":"2.0"
	},
	"extensionsUsed":[
		"KHR_materials_specular",
		"KHR_materials_ior"
	],
	"scene":0,
	"scenes":[
		{
			"name":"Scene",
			"nodes":[
				0
			]
		}
	],
	"nodes":[
		{
			"mesh":0,
			"name":"Tuer",
			"rotation":[
				0,
				-0.7071067094802856,
				0,
				0.7071068286895752
			]
		}
	],
	"materials":[
		{
			"doubleSided":true,
			"extensions":{
				"KHR_materials_specular":{
					"specularFactor":0.6000000238418579,
					"specularTexture":{
						"index":0
					}
				},
				"KHR_materials_ior":{
					"ior":1.4500000476837158
				}
			},
			"name":"Holz",
			"normalTexture":{
				"index":1
			},
			"pbrMetallicRoughness":{
				"baseColorTexture":{
					"index":2
				},
				"metallicFactor":0,
				"roughnessFactor":0.5
			}
		},
		{
			"doubleSided":true,
			"name":"Kerzenst\u00e4nder",
			"pbrMetallicRoughness":{
				"baseColorTexture":{
					"index":3
				},
				"metallicFactor":0,
				"roughnessFactor":0.5
			}
		}
	],
	"meshes":[
		{
			"name":"Wand_4m_Tuer.002",
			"primitives":[
				{
					"attributes":{
						"POSITION":0,
						"NORMAL":1,
						"TEXCOORD_0":2
					},
					"indices":3,
					"material":0
				},
				{
					"attributes":{
						"POSITION":4,
						"NORMAL":5,
						"TEXCOORD_0":6
					},
					"indices":7,
					"material":1
				}
			]
		}
	],
	"textures":[
		{
			"sampler":0,
			"source":0
		},
		{
			"sampler":0,
			"source":1
		},
		{
			"sampler":0,
			"source":2
		},
		{
			"sampler":0,
			"source":3
		}
	],
	"images":[
		{
			"mimeType":"image/png",
			"name":"RauesHolz_AO",
			"uri":"textures/RauesHolz_AO.png"
		},
		{
			"mimeType":"image/png",
			"name":"RauesHolz_Normal",
			"uri":"textures/RauesHolz_Normal.png"
		},
		{
			"mimeType":"image/png",
			"name":"RauesHolz-2_Difuse",
			"uri":"textures/RauesHolz-2_Difuse.png"
		},
		{
			"mimeType":"image/jpeg",
			"name":"a4b52f8ee2ec65b8c5cc17536de1f9f2",
			"uri":"textures/a4b52f8ee2ec65b8c5cc17536de1f9f2.jpg"
		}
	],
	"accessors":[
		{
			"bufferView":0,
			"componentType":5126,
			"count":153,
			"max":[
				0.10000007599592209,
				2.9700000286102295,
				-7.885135877572225e-10
			],
			"min":[
				9.920952948050399e-10,
				0,
				-2
			],
			"type":"VEC3"
		},
		{
			"bufferView":1,
			"componentType":5126,
			"count":153,
			"type":"VEC3"
		},
		{
			"bufferView":2,
			"componentType":5126,
			"count":153,
			"type":"VEC2"
		},
		{
			"bufferView":3,
			"componentType":5123,
			"count":492,
			"type":"SCALAR"
		},
		{
			"bufferView":4,
			"componentType":5126,
			"count":1732,
			"max":[
				0.22000013291835785,
				2.5345652103424072,
				0
			],
			"min":[
				-0.11971408873796463,
				0.12061524391174316,
				-1.8900001049041748
			],
			"type":"VEC3"
		},
		{
			"bufferView":5,
			"componentType":5126,
			"count":1732,
			"type":"VEC3"
		},
		{
			"bufferView":6,
			"componentType":5126,
			"count":1732,
			"type":"VEC2"
		},
		{
			"bufferView":7,
			"componentType":5123,
			"count":3744,
			"type":"SCALAR"
		}
	],
	"bufferViews":[
		{
			"buffer":0,
			"byteLength":1836,
			"byteOffset":0,
			"target":34962
		},
		{
			"buffer":0,
			"byteLength":1836,
			"byteOffset":1836,
			"target":34962
		},
		{
			"buffer":0,
			"byteLength":1224,
			"byteOffset":3672,
			"target":34962
		},
		{
			"buffer":0,
			"byteLength":984,
			"byteOffset":4896,
			"target":34963
		},
		{
			"buffer":0,
			"byteLength":20784,
			"byteOffset":5880,
			"target":34962
		},
		{
			"buffer":0,
			"byteLength":20784,
			"byteOffset":26664,
			"target":34962
		},
		{
			"buffer":0,
			"byteLength":13856,
			"byteOffset":47448,
			"target":34962
		},
		{
			"buffer":0,
			"byteLength":7488,
			"byteOffset":61304,
			"target":34963
		}
	],
	"samplers":[
		{
			"magFilter":9729,
			"minFilter":9987
		}
	],
	"buffers":[
		{
			"byteLength":68792,
			"uri":"Tuer.bin"
		}
	]
}
