{
	"asset":{
		"copyright":"TWS",
		"generator":"Khronos glTF Blender I/O v4.0.44",
		"version":"2.0"
	},
	"scene":0,
	"scenes":[
		{
			"name":"Scene",
			"nodes":[
				0
			]
		}
	],
	"nodes":[
		{
			"mesh":0,
			"name":"Wand_1m_V2",
			"rotation":[
				0,
				-0.7071067094802856,
				0,
				0.7071068286895752
			]
		}
	],
	"materials":[
		{
			"doubleSided":true,
			"name":"Stonewall",
			"normalTexture":{
				"index":0
			},
			"pbrMetallicRoughness":{
				"baseColorTexture":{
					"index":1
				},
				"metallicFactor":0,
				"metallicRoughnessTexture":{
					"index":2
				}
			}
		},
		{
			"doubleSided":true,
			"name":"Stein_Mit_Decals",
			"normalTexture":{
				"index":3,
				"scale":0.5
			},
			"pbrMetallicRoughness":{
				"baseColorTexture":{
					"index":4
				},
				"metallicRoughnessTexture":{
					"index":5
				}
			}
		}
	],
	"meshes":[
		{
			"name":"Wand_1m.001",
			"primitives":[
				{
					"attributes":{
						"POSITION":0,
						"NORMAL":1,
						"TEXCOORD_0":2,
						"TEXCOORD_1":3,
						"TEXCOORD_2":4
					},
					"indices":5,
					"material":0
				},
				{
					"attributes":{
						"POSITION":6,
						"NORMAL":7,
						"TEXCOORD_0":8,
						"TEXCOORD_1":9,
						"TEXCOORD_2":10
					},
					"indices":11,
					"material":1
				}
			]
		}
	],
	"textures":[
		{
			"sampler":0,
			"source":0
		},
		{
			"sampler":0,
			"source":1
		},
		{
			"sampler":0,
			"source":2
		},
		{
			"sampler":0,
			"source":3
		},
		{
			"sampler":0,
			"source":4
		},
		{
			"sampler":0,
			"source":5
		}
	],
	"images":[
		{
			"mimeType":"image/png",
			"name":"Wand_Normal",
			"uri":"textures/Wand_Normal.png"
		},
		{
			"mimeType":"image/png",
			"name":"Wand_Albedo2",
			"uri":"textures/Wand_Albedo2.png"
		},
		{
			"mimeType":"image/png",
			"name":"Roughness0001",
			"uri":"textures/Roughness0001.png"
		},
		{
			"mimeType":"image/png",
			"name":"Normal0002",
			"uri":"textures/Normal0002.png"
		},
		{
			"mimeType":"image/png",
			"name":"Stein_Albedo",
			"uri":"textures/Stein_Albedo.png"
		},
		{
			"mimeType":"image/png",
			"name":"Masks0002",
			"uri":"textures/Masks0002.png"
		}
	],
	"accessors":[
		{
			"bufferView":0,
			"componentType":5126,
			"count":190,
			"max":[
				0.3000006079673767,
				1,
				4
			],
			"min":[
				-0.30000001192092896,
				0,
				-4
			],
			"type":"VEC3"
		},
		{
			"bufferView":1,
			"componentType":5126,
			"count":190,
			"type":"VEC3"
		},
		{
			"bufferView":2,
			"componentType":5126,
			"count":190,
			"type":"VEC2"
		},
		{
			"bufferView":3,
			"componentType":5126,
			"count":190,
			"type":"VEC2"
		},
		{
			"bufferView":4,
			"componentType":5126,
			"count":190,
			"type":"VEC2"
		},
		{
			"bufferView":5,
			"componentType":5123,
			"count":432,
			"type":"SCALAR"
		},
		{
			"bufferView":6,
			"componentType":5126,
			"count":64,
			"max":[
				0.22000077366828918,
				0.9000000953674316,
				4
			],
			"min":[
				-0.22000136971473694,
				0.09999990463256836,
				-4
			],
			"type":"VEC3"
		},
		{
			"bufferView":7,
			"componentType":5126,
			"count":64,
			"type":"VEC3"
		},
		{
			"bufferView":8,
			"componentType":5126,
			"count":64,
			"type":"VEC2"
		},
		{
			"bufferView":9,
			"componentType":5126,
			"count":64,
			"type":"VEC2"
		},
		{
			"bufferView":10,
			"componentType":5126,
			"count":64,
			"type":"VEC2"
		},
		{
			"bufferView":11,
			"componentType":5123,
			"count":96,
			"type":"SCALAR"
		}
	],
	"bufferViews":[
		{
			"buffer":0,
			"byteLength":2280,
			"byteOffset":0,
			"target":34962
		},
		{
			"buffer":0,
			"byteLength":2280,
			"byteOffset":2280,
			"target":34962
		},
		{
			"buffer":0,
			"byteLength":1520,
			"byteOffset":4560,
			"target":34962
		},
		{
			"buffer":0,
			"byteLength":1520,
			"byteOffset":6080,
			"target":34962
		},
		{
			"buffer":0,
			"byteLength":1520,
			"byteOffset":7600,
			"target":34962
		},
		{
			"buffer":0,
			"byteLength":864,
			"byteOffset":9120,
			"target":34963
		},
		{
			"buffer":0,
			"byteLength":768,
			"byteOffset":9984,
			"target":34962
		},
		{
			"buffer":0,
			"byteLength":768,
			"byteOffset":10752,
			"target":34962
		},
		{
			"buffer":0,
			"byteLength":512,
			"byteOffset":11520,
			"target":34962
		},
		{
			"buffer":0,
			"byteLength":512,
			"byteOffset":12032,
			"target":34962
		},
		{
			"buffer":0,
			"byteLength":512,
			"byteOffset":12544,
			"target":34962
		},
		{
			"buffer":0,
			"byteLength":192,
			"byteOffset":13056,
			"target":34963
		}
	],
	"samplers":[
		{
			"magFilter":9729,
			"minFilter":9987
		}
	],
	"buffers":[
		{
			"byteLength":13248,
			"uri":"Wand_1m_V2.bin"
		}
	]
}
