{
	"asset":{
		"copyright":"TWS",
		"generator":"Khronos glTF Blender I/O v4.0.44",
		"version":"2.0"
	},
	"scene":0,
	"scenes":[
		{
			"name":"Scene",
			"nodes":[
				0
			]
		}
	],
	"nodes":[
		{
			"mesh":0,
			"name":"Wand_Fenster_Gro\u00df_8m",
			"rotation":[
				0,
				0.7071067094802856,
				0,
				0.7071068286895752
			]
		}
	],
	"materials":[
		{
			"doubleSided":true,
			"name":"Stonewall",
			"normalTexture":{
				"index":0
			},
			"pbrMetallicRoughness":{
				"baseColorTexture":{
					"index":1
				},
				"metallicFactor":0,
				"metallicRoughnessTexture":{
					"index":2
				}
			}
		},
		{
			"doubleSided":true,
			"name":"Stein_Mit_Decals",
			"normalTexture":{
				"index":3,
				"scale":0.5
			},
			"pbrMetallicRoughness":{
				"baseColorTexture":{
					"index":4
				},
				"metallicRoughnessTexture":{
					"index":5
				}
			}
		}
	],
	"meshes":[
		{
			"name":"Wand_4m.004",
			"primitives":[
				{
					"attributes":{
						"POSITION":0,
						"NORMAL":1,
						"TEXCOORD_0":2,
						"TEXCOORD_1":3,
						"TEXCOORD_2":4
					},
					"indices":5,
					"material":0
				},
				{
					"attributes":{
						"POSITION":6,
						"NORMAL":7,
						"TEXCOORD_0":8,
						"TEXCOORD_1":9,
						"TEXCOORD_2":10
					},
					"indices":11,
					"material":1
				}
			]
		}
	],
	"textures":[
		{
			"sampler":0,
			"source":0
		},
		{
			"sampler":0,
			"source":1
		},
		{
			"sampler":0,
			"source":2
		},
		{
			"sampler":0,
			"source":3
		},
		{
			"sampler":0,
			"source":4
		},
		{
			"sampler":0,
			"source":5
		}
	],
	"images":[
		{
			"mimeType":"image/png",
			"name":"Wand_Normal",
			"uri":"textures/Wand_Normal.png"
		},
		{
			"mimeType":"image/png",
			"name":"Wand_Albedo2",
			"uri":"textures/Wand_Albedo2.png"
		},
		{
			"mimeType":"image/png",
			"name":"Roughness0001",
			"uri":"textures/Roughness0001.png"
		},
		{
			"mimeType":"image/png",
			"name":"Normal0002",
			"uri":"textures/Normal0002.png"
		},
		{
			"mimeType":"image/png",
			"name":"Stein_Albedo",
			"uri":"textures/Stein_Albedo.png"
		},
		{
			"mimeType":"image/png",
			"name":"Masks0002",
			"uri":"textures/Masks0002.png"
		}
	],
	"accessors":[
		{
			"bufferView":0,
			"componentType":5126,
			"count":455,
			"max":[
				0.2800000309944153,
				8,
				4
			],
			"min":[
				-0.28000062704086304,
				-7.003545761108398e-07,
				-4
			],
			"type":"VEC3"
		},
		{
			"bufferView":1,
			"componentType":5126,
			"count":455,
			"type":"VEC3"
		},
		{
			"bufferView":2,
			"componentType":5126,
			"count":455,
			"type":"VEC2"
		},
		{
			"bufferView":3,
			"componentType":5126,
			"count":455,
			"type":"VEC2"
		},
		{
			"bufferView":4,
			"componentType":5126,
			"count":455,
			"type":"VEC2"
		},
		{
			"bufferView":5,
			"componentType":5123,
			"count":1176,
			"type":"SCALAR"
		},
		{
			"bufferView":6,
			"componentType":5126,
			"count":1417,
			"max":[
				0.270000159740448,
				7.263617515563965,
				3.001495838165283
			],
			"min":[
				-0.2700006365776062,
				0.6954238414764404,
				-3.001495838165283
			],
			"type":"VEC3"
		},
		{
			"bufferView":7,
			"componentType":5126,
			"count":1417,
			"type":"VEC3"
		},
		{
			"bufferView":8,
			"componentType":5126,
			"count":1417,
			"type":"VEC2"
		},
		{
			"bufferView":9,
			"componentType":5126,
			"count":1417,
			"type":"VEC2"
		},
		{
			"bufferView":10,
			"componentType":5126,
			"count":1417,
			"type":"VEC2"
		},
		{
			"bufferView":11,
			"componentType":5123,
			"count":3648,
			"type":"SCALAR"
		}
	],
	"bufferViews":[
		{
			"buffer":0,
			"byteLength":5460,
			"byteOffset":0,
			"target":34962
		},
		{
			"buffer":0,
			"byteLength":5460,
			"byteOffset":5460,
			"target":34962
		},
		{
			"buffer":0,
			"byteLength":3640,
			"byteOffset":10920,
			"target":34962
		},
		{
			"buffer":0,
			"byteLength":3640,
			"byteOffset":14560,
			"target":34962
		},
		{
			"buffer":0,
			"byteLength":3640,
			"byteOffset":18200,
			"target":34962
		},
		{
			"buffer":0,
			"byteLength":2352,
			"byteOffset":21840,
			"target":34963
		},
		{
			"buffer":0,
			"byteLength":17004,
			"byteOffset":24192,
			"target":34962
		},
		{
			"buffer":0,
			"byteLength":17004,
			"byteOffset":41196,
			"target":34962
		},
		{
			"buffer":0,
			"byteLength":11336,
			"byteOffset":58200,
			"target":34962
		},
		{
			"buffer":0,
			"byteLength":11336,
			"byteOffset":69536,
			"target":34962
		},
		{
			"buffer":0,
			"byteLength":11336,
			"byteOffset":80872,
			"target":34962
		},
		{
			"buffer":0,
			"byteLength":7296,
			"byteOffset":92208,
			"target":34963
		}
	],
	"samplers":[
		{
			"magFilter":9729,
			"minFilter":9987
		}
	],
	"buffers":[
		{
			"byteLength":99504,
			"uri":"Wand_Fenster_Gro%C3%9F_8m.bin"
		}
	]
}
