{
    "asset" : {
        "generator" : "Khronos glTF Blender I/O v1.6.16",
        "version" : "2.0"
    },
    "scene" : 0,
    "scenes" : [
        {
            "name" : "Scene",
            "nodes" : [
                0
            ]
        }
    ],
    "nodes" : [
        {
            "mesh" : 0,
            "name" : "Enemy"
        }
    ],
    "materials" : [
        {
            "alphaMode" : "BLEND",
            "doubleSided" : true,
            "name" : "Transparent.001",
            "pbrMetallicRoughness" : {
                "baseColorFactor" : [
                    0.4823049008846283,
                    0.02957972139120102,
                    0.018693845719099045,
                    1
                ],
                "metallicFactor" : 0,
                "roughnessFactor" : 0.5
            }
        }
    ],
    "meshes" : [
        {
            "name" : "Quad Sphere.002",
            "primitives" : [
                {
                    "attributes" : {
                        "POSITION" : 0,
                        "NORMAL" : 1,
                        "TEXCOORD_0" : 2
                    },
                    "indices" : 3,
                    "material" : 0
                }
            ]
        }
    ],
    "accessors" : [
        {
            "bufferView" : 0,
            "componentType" : 5126,
            "count" : 6315,
            "max" : [
                0.2993485629558563,
                1.8860315084457397,
                0.23440898954868317
            ],
            "min" : [
                -0.4328452944755554,
                0.003710508346557617,
                -0.38648873567581177
            ],
            "type" : "VEC3"
        },
        {
            "bufferView" : 1,
            "componentType" : 5126,
            "count" : 6315,
            "type" : "VEC3"
        },
        {
            "bufferView" : 2,
            "componentType" : 5126,
            "count" : 6315,
            "type" : "VEC2"
        },
        {
            "bufferView" : 3,
            "componentType" : 5123,
            "count" : 31776,
            "type" : "SCALAR"
        }
    ],
    "bufferViews" : [
        {
            "buffer" : 0,
            "byteLength" : 75780,
            "byteOffset" : 0
        },
        {
            "buffer" : 0,
            "byteLength" : 75780,
            "byteOffset" : 75780
        },
        {
            "buffer" : 0,
            "byteLength" : 50520,
            "byteOffset" : 151560
        },
        {
            "buffer" : 0,
            "byteLength" : 63552,
            "byteOffset" : 202080
        }
    ],
    "buffers" : [
        {
            "byteLength" : 265632,
            "uri" : "data:application/octet-stream;base64,"
        }
    ]
}
