{
    "asset" : {
        "generator" : "Khronos glTF Blender I/O v1.6.16",
        "version" : "2.0"
    },
    "scene" : 0,
    "scenes" : [
        {
            "name" : "Scene",
            "nodes" : [
                0
            ]
        }
    ],
    "nodes" : [
        {
            "mesh" : 0,
            "name" : "Barrel"
        }
    ],
    "materials" : [
        {
            "doubleSided" : true,
            "name" : "Barrel.Brown",
            "pbrMetallicRoughness" : {
                "baseColorFactor" : [
                    0.12621496617794037,
                    0.026047736406326294,
                    0.012209393084049225,
                    1
                ],
                "metallicFactor" : 0
            }
        },
        {
            "doubleSided" : true,
            "name" : "Barrel.Grey",
            "pbrMetallicRoughness" : {
                "baseColorFactor" : [
                    0.089838407933712,
                    0.089838407933712,
                    0.089838407933712,
                    1
                ],
                "metallicFactor" : 0.3553723990917206,
                "roughnessFactor" : 0.508264422416687
            }
        }
    ],
    "meshes" : [
        {
            "name" : "Cylinder.002",
            "primitives" : [
                {
                    "attributes" : {
                        "POSITION" : 0,
                        "NORMAL" : 1,
                        "TEXCOORD_0" : 2
                    },
                    "indices" : 3,
                    "material" : 0
                },
                {
                    "attributes" : {
                        "POSITION" : 4,
                        "NORMAL" : 5,
                        "TEXCOORD_0" : 6
                    },
                    "indices" : 7,
                    "material" : 1
                }
            ]
        }
    ],
    "accessors" : [
        {
            "bufferView" : 0,
            "componentType" : 5126,
            "count" : 1378,
            "max" : [
                1.265990138053894,
                3.3504276275634766,
                1.265990138053894
            ],
            "min" : [
                -1.265990138053894,
                0.0070792436599731445,
                -1.265990138053894
            ],
            "type" : "VEC3"
        },
        {
            "bufferView" : 1,
            "componentType" : 5126,
            "count" : 1378,
            "type" : "VEC3"
        },
        {
            "bufferView" : 2,
            "componentType" : 5126,
            "count" : 1378,
            "type" : "VEC2"
        },
        {
            "bufferView" : 3,
            "componentType" : 5123,
            "count" : 4176,
            "type" : "SCALAR"
        },
        {
            "bufferView" : 4,
            "componentType" : 5126,
            "count" : 890,
            "max" : [
                1.2757617235183716,
                2.7872962951660156,
                1.2757617235183716
            ],
            "min" : [
                -1.2757617235183716,
                0.5702104568481445,
                -1.2757617235183716
            ],
            "type" : "VEC3"
        },
        {
            "bufferView" : 5,
            "componentType" : 5126,
            "count" : 890,
            "type" : "VEC3"
        },
        {
            "bufferView" : 6,
            "componentType" : 5126,
            "count" : 890,
            "type" : "VEC2"
        },
        {
            "bufferView" : 7,
            "componentType" : 5123,
            "count" : 2304,
            "type" : "SCALAR"
        }
    ],
    "bufferViews" : [
        {
            "buffer" : 0,
            "byteLength" : 16536,
            "byteOffset" : 0
        },
        {
            "buffer" : 0,
            "byteLength" : 16536,
            "byteOffset" : 16536
        },
        {
            "buffer" : 0,
            "byteLength" : 11024,
            "byteOffset" : 33072
        },
        {
            "buffer" : 0,
            "byteLength" : 8352,
            "byteOffset" : 44096
        },
        {
            "buffer" : 0,
            "byteLength" : 10680,
            "byteOffset" : 52448
        },
        {
            "buffer" : 0,
            "byteLength" : 10680,
            "byteOffset" : 63128
        },
        {
            "buffer" : 0,
            "byteLength" : 7120,
            "byteOffset" : 73808
        },
        {
            "buffer" : 0,
            "byteLength" : 4608,
            "byteOffset" : 80928
        }
    ],
    "buffers" : [
        {
            "byteLength" : 85536,
            "uri" : "data:application/octet-stream;base64,"
        }
    ]
}
