{
    "asset" : {
        "generator" : "Khronos glTF Blender I/O v1.6.16",
        "version" : "2.0"
    },
    "scene" : 0,
    "scenes" : [
        {
            "name" : "Scene",
            "nodes" : [
                0
            ]
        }
    ],
    "nodes" : [
        {
            "mesh" : 0,
            "name" : "Cauldron"
        }
    ],
    "materials" : [
        {
            "doubleSided" : true,
            "name" : "Cauldron",
            "pbrMetallicRoughness" : {
                "baseColorFactor" : [
                    0.007673333398997784,
                    0.0021677541080862284,
                    0.0016159528167918324,
                    1
                ],
                "metallicFactor" : 0.1652892529964447,
                "roughnessFactor" : 0.45041322708129883
            }
        }
    ],
    "meshes" : [
        {
            "name" : "Cube.005",
            "primitives" : [
                {
                    "attributes" : {
                        "POSITION" : 0,
                        "NORMAL" : 1,
                        "TEXCOORD_0" : 2
                    },
                    "indices" : 3,
                    "material" : 0
                }
            ]
        }
    ],
    "accessors" : [
        {
            "bufferView" : 0,
            "componentType" : 5126,
            "count" : 19543,
            "max" : [
                0.8177068829536438,
                1.5232033729553223,
                0.9590345621109009
            ],
            "min" : [
                -0.8177068829536438,
                0.00010414421558380127,
                -0.9590346217155457
            ],
            "type" : "VEC3"
        },
        {
            "bufferView" : 1,
            "componentType" : 5126,
            "count" : 19543,
            "type" : "VEC3"
        },
        {
            "bufferView" : 2,
            "componentType" : 5126,
            "count" : 19543,
            "type" : "VEC2"
        },
        {
            "bufferView" : 3,
            "componentType" : 5123,
            "count" : 103296,
            "type" : "SCALAR"
        }
    ],
    "bufferViews" : [
        {
            "buffer" : 0,
            "byteLength" : 234516,
            "byteOffset" : 0
        },
        {
            "buffer" : 0,
            "byteLength" : 234516,
            "byteOffset" : 234516
        },
        {
            "buffer" : 0,
            "byteLength" : 156344,
            "byteOffset" : 469032
        },
        {
            "buffer" : 0,
            "byteLength" : 206592,
            "byteOffset" : 625376
        }
    ],
    "buffers" : [
        {
            "byteLength" : 831968,
            "uri" : "data:application/octet-stream;base64,"
        }
    ]
}
