{
    "asset" : {
        "generator" : "Khronos glTF Blender I/O v1.6.16",
        "version" : "2.0"
    },
    "scene" : 0,
    "scenes" : [
        {
            "name" : "Scene",
            "nodes" : [
                0,
                1
            ]
        }
    ],
    "nodes" : [
        {
            "mesh" : 0,
            "name" : "Plane.001",
            "translation" : [
                0,
                0.39951449632644653,
                -0.4601019620895386
            ]
        },
        {
            "mesh" : 1,
            "name" : "Plane.002"
        }
    ],
    "materials" : [
        {
            "doubleSided" : true,
            "name" : "Chest.Brown",
            "pbrMetallicRoughness" : {
                "baseColorFactor" : [
                    0.09592153131961823,
                    0.02829260192811489,
                    0.011173173785209656,
                    1
                ],
                "metallicFactor" : 0
            }
        },
        {
            "doubleSided" : true,
            "name" : "Chest.Silver",
            "pbrMetallicRoughness" : {
                "baseColorFactor" : [
                    0.08398815244436264,
                    0.06859380006790161,
                    0.07261972874403,
                    1
                ],
                "metallicFactor" : 0.2975206673145294,
                "roughnessFactor" : 0.11983470618724823
            }
        }
    ],
    "meshes" : [
        {
            "name" : "Plane.001",
            "primitives" : [
                {
                    "attributes" : {
                        "POSITION" : 0,
                        "NORMAL" : 1,
                        "TEXCOORD_0" : 2
                    },
                    "indices" : 3,
                    "material" : 0
                },
                {
                    "attributes" : {
                        "POSITION" : 4,
                        "NORMAL" : 5,
                        "TEXCOORD_0" : 6
                    },
                    "indices" : 7,
                    "material" : 1
                }
            ]
        },
        {
            "name" : "Plane.002",
            "primitives" : [
                {
                    "attributes" : {
                        "POSITION" : 8,
                        "NORMAL" : 9,
                        "TEXCOORD_0" : 10
                    },
                    "indices" : 11,
                    "material" : 0
                },
                {
                    "attributes" : {
                        "POSITION" : 12,
                        "NORMAL" : 13,
                        "TEXCOORD_0" : 14
                    },
                    "indices" : 15,
                    "material" : 1
                }
            ]
        }
    ],
    "accessors" : [
        {
            "bufferView" : 0,
            "componentType" : 5126,
            "count" : 120,
            "max" : [
                1,
                0.530960738658905,
                0.9202039241790771
            ],
            "min" : [
                -1,
                0,
                0
            ],
            "type" : "VEC3"
        },
        {
            "bufferView" : 1,
            "componentType" : 5126,
            "count" : 120,
            "type" : "VEC3"
        },
        {
            "bufferView" : 2,
            "componentType" : 5126,
            "count" : 120,
            "type" : "VEC2"
        },
        {
            "bufferView" : 3,
            "componentType" : 5123,
            "count" : 216,
            "type" : "SCALAR"
        },
        {
            "bufferView" : 4,
            "componentType" : 5126,
            "count" : 268,
            "max" : [
                1.090490460395813,
                0.5682752132415771,
                0.9747490286827087
            ],
            "min" : [
                -1.090490460395813,
                -0.004178844392299652,
                -0.054545044898986816
            ],
            "type" : "VEC3"
        },
        {
            "bufferView" : 5,
            "componentType" : 5126,
            "count" : 268,
            "type" : "VEC3"
        },
        {
            "bufferView" : 6,
            "componentType" : 5126,
            "count" : 268,
            "type" : "VEC2"
        },
        {
            "bufferView" : 7,
            "componentType" : 5123,
            "count" : 492,
            "type" : "SCALAR"
        },
        {
            "bufferView" : 8,
            "componentType" : 5126,
            "count" : 48,
            "max" : [
                0.9800664186477661,
                0.4006897211074829,
                0.44043588638305664
            ],
            "min" : [
                -0.9800664186477661,
                0.016614675521850586,
                -0.44043588638305664
            ],
            "type" : "VEC3"
        },
        {
            "bufferView" : 9,
            "componentType" : 5126,
            "count" : 48,
            "type" : "VEC3"
        },
        {
            "bufferView" : 10,
            "componentType" : 5126,
            "count" : 48,
            "type" : "VEC2"
        },
        {
            "bufferView" : 11,
            "componentType" : 5123,
            "count" : 72,
            "type" : "SCALAR"
        },
        {
            "bufferView" : 12,
            "componentType" : 5126,
            "count" : 176,
            "max" : [
                1,
                0.4006897211074829,
                0.4601019620895386
            ],
            "min" : [
                -1,
                0.016614675521850586,
                -0.4601019620895386
            ],
            "type" : "VEC3"
        },
        {
            "bufferView" : 13,
            "componentType" : 5126,
            "count" : 176,
            "type" : "VEC3"
        },
        {
            "bufferView" : 14,
            "componentType" : 5126,
            "count" : 176,
            "type" : "VEC2"
        },
        {
            "bufferView" : 15,
            "componentType" : 5123,
            "count" : 324,
            "type" : "SCALAR"
        }
    ],
    "bufferViews" : [
        {
            "buffer" : 0,
            "byteLength" : 1440,
            "byteOffset" : 0
        },
        {
            "buffer" : 0,
            "byteLength" : 1440,
            "byteOffset" : 1440
        },
        {
            "buffer" : 0,
            "byteLength" : 960,
            "byteOffset" : 2880
        },
        {
            "buffer" : 0,
            "byteLength" : 432,
            "byteOffset" : 3840
        },
        {
            "buffer" : 0,
            "byteLength" : 3216,
            "byteOffset" : 4272
        },
        {
            "buffer" : 0,
            "byteLength" : 3216,
            "byteOffset" : 7488
        },
        {
            "buffer" : 0,
            "byteLength" : 2144,
            "byteOffset" : 10704
        },
        {
            "buffer" : 0,
            "byteLength" : 984,
            "byteOffset" : 12848
        },
        {
            "buffer" : 0,
            "byteLength" : 576,
            "byteOffset" : 13832
        },
        {
            "buffer" : 0,
            "byteLength" : 576,
            "byteOffset" : 14408
        },
        {
            "buffer" : 0,
            "byteLength" : 384,
            "byteOffset" : 14984
        },
        {
            "buffer" : 0,
            "byteLength" : 144,
            "byteOffset" : 15368
        },
        {
            "buffer" : 0,
            "byteLength" : 2112,
            "byteOffset" : 15512
        },
        {
            "buffer" : 0,
            "byteLength" : 2112,
            "byteOffset" : 17624
        },
        {
            "buffer" : 0,
            "byteLength" : 1408,
            "byteOffset" : 19736
        },
        {
            "buffer" : 0,
            "byteLength" : 648,
            "byteOffset" : 21144
        }
    ],
    "buffers" : [
        {
            "byteLength" : 21792,
            "uri" : "data:application/octet-stream;base64,"
        }
    ]
}
