{
    "asset" : {
        "generator" : "Khronos glTF Blender I/O v1.6.16",
        "version" : "2.0"
    },
    "scene" : 0,
    "scenes" : [
        {
            "name" : "Scene",
            "nodes" : [
                0,
                1
            ]
        }
    ],
    "nodes" : [
        {
            "mesh" : 0,
            "name" : "base"
        },
        {
            "mesh" : 1,
            "name" : "lid",
            "translation" : [
                -6.426285743713379,
                2.128772735595703,
                0.003152608871459961
            ]
        }
    ],
    "materials" : [
        {
            "doubleSided" : true,
            "name" : "coffin",
            "pbrMetallicRoughness" : {
                "baseColorFactor" : [
                    0,
                    0,
                    0,
                    1
                ],
                "metallicFactor" : 0.07438016682863235,
                "roughnessFactor" : 0.40909090638160706
            }
        }
    ],
    "meshes" : [
        {
            "name" : "Cube.007",
            "primitives" : [
                {
                    "attributes" : {
                        "POSITION" : 0,
                        "NORMAL" : 1,
                        "TEXCOORD_0" : 2
                    },
                    "indices" : 3,
                    "material" : 0
                }
            ]
        },
        {
            "name" : "Cube.008",
            "primitives" : [
                {
                    "attributes" : {
                        "POSITION" : 4,
                        "NORMAL" : 5,
                        "TEXCOORD_0" : 6
                    },
                    "indices" : 7,
                    "material" : 0
                }
            ]
        }
    ],
    "accessors" : [
        {
            "bufferView" : 0,
            "componentType" : 5126,
            "count" : 396,
            "max" : [
                3.9671554565429688,
                2.026629686355591,
                2.0135855674743652
            ],
            "min" : [
                -6.432742595672607,
                -0.03174710273742676,
                -2.0135855674743652
            ],
            "type" : "VEC3"
        },
        {
            "bufferView" : 1,
            "componentType" : 5126,
            "count" : 396,
            "type" : "VEC3"
        },
        {
            "bufferView" : 2,
            "componentType" : 5126,
            "count" : 396,
            "type" : "VEC2"
        },
        {
            "bufferView" : 3,
            "componentType" : 5123,
            "count" : 1428,
            "type" : "SCALAR"
        },
        {
            "bufferView" : 4,
            "componentType" : 5126,
            "count" : 220,
            "max" : [
                10.393268585205078,
                0.3616524040699005,
                2.0123021602630615
            ],
            "min" : [
                0,
                -0.11347563564777374,
                -2.0123019218444824
            ],
            "type" : "VEC3"
        },
        {
            "bufferView" : 5,
            "componentType" : 5126,
            "count" : 220,
            "type" : "VEC3"
        },
        {
            "bufferView" : 6,
            "componentType" : 5126,
            "count" : 220,
            "type" : "VEC2"
        },
        {
            "bufferView" : 7,
            "componentType" : 5123,
            "count" : 948,
            "type" : "SCALAR"
        }
    ],
    "bufferViews" : [
        {
            "buffer" : 0,
            "byteLength" : 4752,
            "byteOffset" : 0
        },
        {
            "buffer" : 0,
            "byteLength" : 4752,
            "byteOffset" : 4752
        },
        {
            "buffer" : 0,
            "byteLength" : 3168,
            "byteOffset" : 9504
        },
        {
            "buffer" : 0,
            "byteLength" : 2856,
            "byteOffset" : 12672
        },
        {
            "buffer" : 0,
            "byteLength" : 2640,
            "byteOffset" : 15528
        },
        {
            "buffer" : 0,
            "byteLength" : 2640,
            "byteOffset" : 18168
        },
        {
            "buffer" : 0,
            "byteLength" : 1760,
            "byteOffset" : 20808
        },
        {
            "buffer" : 0,
            "byteLength" : 1896,
            "byteOffset" : 22568
        }
    ],
    "buffers" : [
        {
            "byteLength" : 24464,
            "uri" : "data:application/octet-stream;base64,"
        }
    ]
}
