{
    "asset" : {
        "generator" : "Khronos glTF Blender I/O v1.6.16",
        "version" : "2.0"
    },
    "scene" : 0,
    "scenes" : [
        {
            "name" : "Scene",
            "nodes" : [
                0
            ]
        }
    ],
    "nodes" : [
        {
            "mesh" : 0,
            "name" : "Plane.003"
        }
    ],
    "materials" : [
        {
            "doubleSided" : true,
            "name" : "Frame",
            "pbrMetallicRoughness" : {
                "baseColorFactor" : [
                    1,
                    0.5150643587112427,
                    0.0728837251663208,
                    1
                ],
                "metallicFactor" : 0.5874128341674805,
                "roughnessFactor" : 0.16433565318584442
            }
        }
    ],
    "meshes" : [
        {
            "name" : "Plane.005",
            "primitives" : [
                {
                    "attributes" : {
                        "POSITION" : 0,
                        "NORMAL" : 1,
                        "TEXCOORD_0" : 2
                    },
                    "indices" : 3,
                    "material" : 0
                }
            ]
        }
    ],
    "accessors" : [
        {
            "bufferView" : 0,
            "componentType" : 5126,
            "count" : 1911,
            "max" : [
                2.4345386028289795,
                0.20000001788139343,
                3.0196635723114014
            ],
            "min" : [
                -2.4345386028289795,
                0,
                -3.0196635723114014
            ],
            "type" : "VEC3"
        },
        {
            "bufferView" : 1,
            "componentType" : 5126,
            "count" : 1911,
            "type" : "VEC3"
        },
        {
            "bufferView" : 2,
            "componentType" : 5126,
            "count" : 1911,
            "type" : "VEC2"
        },
        {
            "bufferView" : 3,
            "componentType" : 5123,
            "count" : 7344,
            "type" : "SCALAR"
        }
    ],
    "bufferViews" : [
        {
            "buffer" : 0,
            "byteLength" : 22932,
            "byteOffset" : 0
        },
        {
            "buffer" : 0,
            "byteLength" : 22932,
            "byteOffset" : 22932
        },
        {
            "buffer" : 0,
            "byteLength" : 15288,
            "byteOffset" : 45864
        },
        {
            "buffer" : 0,
            "byteLength" : 14688,
            "byteOffset" : 61152
        }
    ],
    "buffers" : [
        {
            "byteLength" : 75840,
            "uri" : "data:application/octet-stream;base64,"
        }
    ]
}
