{
	"asset":{
		"generator":"Khronos glTF Blender I/O v4.0.44",
		"version":"2.0"
	},
	"scene":0,
	"scenes":[
		{
			"name":"Scene",
			"nodes":[
				0
			]
		}
	],
	"nodes":[
		{
			"mesh":0,
			"name":"Plane"
		}
	],
	"materials":[
		{
			"doubleSided":true,
			"name":"Mat_Vase",
			"pbrMetallicRoughness":{
				"baseColorTexture":{
					"index":0
				},
				"metallicFactor":0.5,
				"roughnessFactor":0.42096221446990967
			}
		}
	],
	"meshes":[
		{
			"name":"Plane",
			"primitives":[
				{
					"attributes":{
						"POSITION":0,
						"NORMAL":1,
						"TEXCOORD_0":2
					},
					"indices":3,
					"material":0
				}
			]
		}
	],
	"textures":[
		{
			"sampler":0,
			"source":0
		}
	],
	"images":[
		{
			"mimeType":"image/png",
			"name":"Vase_Albedo",
			"uri":"Vase_Albedo.png"
		}
	],
	"accessors":[
		{
			"bufferView":0,
			"componentType":5126,
			"count":737,
			"max":[
				0.5784499645233154,
				1.7237507104873657,
				0.5784504413604736
			],
			"min":[
				-0.5784502625465393,
				0,
				-0.578450083732605
			],
			"type":"VEC3"
		},
		{
			"bufferView":1,
			"componentType":5126,
			"count":737,
			"type":"VEC3"
		},
		{
			"bufferView":2,
			"componentType":5126,
			"count":737,
			"type":"VEC2"
		},
		{
			"bufferView":3,
			"componentType":5123,
			"count":3840,
			"type":"SCALAR"
		}
	],
	"bufferViews":[
		{
			"buffer":0,
			"byteLength":8844,
			"byteOffset":0,
			"target":34962
		},
		{
			"buffer":0,
			"byteLength":8844,
			"byteOffset":8844,
			"target":34962
		},
		{
			"buffer":0,
			"byteLength":5896,
			"byteOffset":17688,
			"target":34962
		},
		{
			"buffer":0,
			"byteLength":7680,
			"byteOffset":23584,
			"target":34963
		}
	],
	"samplers":[
		{
			"magFilter":9729,
			"minFilter":9987
		}
	],
	"buffers":[
		{
			"byteLength":31264,
			"uri":"Vase.complete.bin"
		}
	]
}
