{
    "asset" : {
        "generator" : "Khronos glTF Blender I/O v1.6.16",
        "version" : "2.0"
    },
    "scene" : 0,
    "scenes" : [
        {
            "name" : "Scene",
            "nodes" : [
                0
            ]
        }
    ],
    "nodes" : [
        {
            "mesh" : 0,
            "name" : "Vase.Complete",
            "translation" : [
                0,
                1,
                0
            ]
        }
    ],
    "materials" : [
        {
            "doubleSided" : true,
            "name" : "Vase",
            "pbrMetallicRoughness" : {
                "baseColorFactor" : [
                    0.281202495098114,
                    0.08294908702373505,
                    0.0616011880338192,
                    1
                ],
                "metallicFactor" : 0.6611570119857788,
                "roughnessFactor" : 0.5
            }
        }
    ],
    "meshes" : [
        {
            "name" : "Cylinder.003",
            "primitives" : [
                {
                    "attributes" : {
                        "POSITION" : 0,
                        "NORMAL" : 1,
                        "TEXCOORD_0" : 2
                    },
                    "indices" : 3,
                    "material" : 0
                }
            ]
        }
    ],
    "accessors" : [
        {
            "bufferView" : 0,
            "componentType" : 5126,
            "count" : 11636,
            "max" : [
                0.5051299333572388,
                0.9599860906600952,
                0.5051299333572388
            ],
            "min" : [
                -0.505129873752594,
                -1.0000004768371582,
                -0.5051299333572388
            ],
            "type" : "VEC3"
        },
        {
            "bufferView" : 1,
            "componentType" : 5126,
            "count" : 11636,
            "type" : "VEC3"
        },
        {
            "bufferView" : 2,
            "componentType" : 5126,
            "count" : 11636,
            "type" : "VEC2"
        },
        {
            "bufferView" : 3,
            "componentType" : 5123,
            "count" : 62976,
            "type" : "SCALAR"
        }
    ],
    "bufferViews" : [
        {
            "buffer" : 0,
            "byteLength" : 139632,
            "byteOffset" : 0
        },
        {
            "buffer" : 0,
            "byteLength" : 139632,
            "byteOffset" : 139632
        },
        {
            "buffer" : 0,
            "byteLength" : 93088,
            "byteOffset" : 279264
        },
        {
            "buffer" : 0,
            "byteLength" : 125952,
            "byteOffset" : 372352
        }
    ],
    "buffers" : [
        {
            "byteLength" : 498304,
            "uri" : "data:application/octet-stream;base64,"
        }
    ]
}
